<?xml version="1.0" standalone="no"?>
<!DOCTYPE svg PUBLIC "-//W3C//DTD SVG 20010904//EN"
 "http://www.w3.org/TR/2001/REC-SVG-20010904/DTD/svg10.dtd">
<svg version="1.0" xmlns="http://www.w3.org/2000/svg"
 width="512.000000pt" height="512.000000pt" viewBox="0 0 512.000000 512.000000"
 preserveAspectRatio="xMidYMid meet">
<metadata>
Created by potrace 1.15, written by Peter Selinger 2001-2017
</metadata>
<g transform="translate(0.000000,512.000000) scale(0.100000,-0.100000)"
fill="#000000" stroke="none">
<path d="M2810 5111 c-87 -28 -104 -46 -261 -281 -68 -102 -127 -187 -131
-190 -18 -14 -88 -169 -98 -216 l-11 -54 -150 0 -149 0 0 -75 0 -75 145 0 145
0 0 -45 0 -45 -144 0 -144 0 -4 -75 -3 -75 148 0 c133 0 147 -2 147 -17 0 -10
0 -243 0 -518 l0 -500 -389 -390 c-214 -214 -402 -411 -419 -436 -17 -26 -43
-82 -58 -125 -23 -70 -26 -90 -21 -174 5 -112 40 -241 94 -348 l37 -73 -164
-164 -165 -165 53 -52 52 -53 153 153 c84 83 156 152 160 152 5 0 22 -13 39
-29 38 -35 105 -56 155 -48 127 21 203 176 138 282 -56 92 -70 64 140 275 104
104 190 188 192 186 2 -2 5 -828 3 -948 0 -16 -15 -18 -175 -18 -191 0 -220
-6 -265 -55 l-25 -27 0 -403 0 -403 25 -27 c53 -57 27 -55 707 -55 605 0 629
1 660 20 65 39 64 27 64 459 0 363 -1 395 -18 424 -34 59 -66 67 -270 67
l-183 0 0 748 0 747 545 545 c523 523 545 546 545 582 0 71 -19 81 -267 143
-240 59 -321 67 -419 41 -91 -24 -155 -67 -281 -190 l-123 -119 0 257 0 256
150 0 150 0 0 75 0 75 -150 0 -150 0 0 45 0 45 150 0 150 0 0 75 0 75 -146 0
-145 0 7 23 c17 56 70 144 154 257 50 67 96 134 102 148 16 41 13 144 -5 179
-26 50 -67 93 -110 114 -44 23 -128 33 -167 20z m97 -151 c19 0 46 -48 45 -80
0 -20 -21 -56 -60 -107 -84 -111 -157 -221 -176 -268 -42 -100 -46 -154 -46
-683 l0 -507 -102 -102 c-57 -57 -105 -103 -108 -103 -3 0 -3 291 0 647 l5
648 26 55 c15 30 68 116 119 190 50 74 117 173 147 218 56 84 81 105 118 97
11 -3 26 -5 32 -5z m629 -1355 c185 -47 174 -42 142 -70 l-27 -23 -133 34
c-143 38 -180 38 -273 7 -46 -15 -117 -83 -798 -762 -841 -839 -807 -799 -807
-940 0 -114 45 -226 157 -390 49 -72 51 -81 24 -105 -26 -24 -47 -11 -98 56
-64 86 -99 156 -133 267 -27 88 -31 116 -28 180 7 143 -29 101 824 955 738
738 796 793 874 817 54 16 139 8 276 -26z m-70 -201 c30 -8 54 -18 54 -22 0
-9 -683 -692 -692 -692 -5 0 -8 60 -8 133 l0 132 223 222 c123 122 234 227
248 232 37 15 115 13 175 -5z m-901 -984 l-105 -105 -1 125 c-1 69 -1 132 0
140 1 8 48 61 104 116 l102 102 3 -136 3 -136 -106 -106z m-264 -132 l-2 -133
-227 -228 c-125 -125 -231 -226 -236 -224 -15 5 -44 98 -45 145 -1 24 6 57 15
75 17 32 485 510 492 502 2 -2 4 -64 3 -137z m369 -648 l0 -670 -105 0 -105 0
0 33 c0 17 0 273 0 567 l0 535 102 102 c57 57 104 103 105 103 2 0 3 -301 3
-670z m-570 -1155 l0 -335 -60 0 -60 0 0 328 c0 181 3 332 7 335 3 4 30 7 60
7 l53 0 0 -335z m770 0 l0 -335 -307 2 -308 3 -3 320 c-1 176 0 325 3 332 3
10 74 13 310 13 l305 0 0 -335z m270 0 l0 -336 -57 3 -58 3 -3 320 c-1 176 0
325 3 332 3 8 24 13 60 13 l55 0 0 -335z"/>
<path d="M80 4860 l0 -80 75 0 75 0 0 78 0 77 -75 3 -75 2 0 -80z"/>
<path d="M3840 4640 l0 -80 75 0 75 0 0 80 0 80 -75 0 -75 0 0 -80z"/>
<path d="M940 4175 l0 -75 75 0 75 0 0 75 0 75 -75 0 -75 0 0 -75z"/>
<path d="M1240 3325 c-134 -134 -156 -153 -170 -141 -59 52 -156 61 -220 21
-52 -33 -74 -76 -74 -147 -1 -48 4 -62 30 -95 39 -49 87 -73 144 -73 59 0 87
18 203 134 53 53 100 96 104 96 4 0 72 -64 150 -142 l142 -141 122 122 123
122 -199 199 -200 200 -155 -155z"/>
<path d="M4890 3315 l0 -75 75 0 75 0 0 75 0 75 -75 0 -75 0 0 -75z"/>
<path d="M4030 2649 c-57 -23 -93 -63 -132 -146 l-39 -83 -54 0 c-94 0 -145
-35 -145 -99 0 -32 12 -47 116 -152 l116 -116 -26 -38 c-33 -48 -40 -75 -33
-131 9 -86 79 -144 172 -144 68 0 121 34 154 98 16 30 16 113 1 143 -7 13 -70
83 -142 155 l-129 130 46 30 c37 23 52 42 76 94 17 36 35 75 41 86 6 12 21 27
35 33 16 7 23 17 19 29 -2 9 -7 33 -11 52 -14 76 -16 78 -65 59z"/>
<path d="M420 1705 l0 -75 80 0 81 0 -3 73 -3 72 -77 3 -78 3 0 -76z"/>
<path d="M3918 735 c-1 -36 -1 -70 0 -75 2 -6 37 -10 78 -10 l74 0 0 75 0 75
-74 0 -74 0 -4 -65z"/>
<path d="M1347 613 c-4 -3 -7 -37 -7 -75 l0 -68 80 0 80 0 0 75 0 75 -73 0
c-41 0 -77 -3 -80 -7z"/>
</g>
</svg>
