<?xml version="1.0" encoding="iso-8859-1"?>
<!-- Generator: Adobe Illustrator 19.0.0, SVG Export Plug-In . SVG Version: 6.00 Build 0)  -->
<svg version="1.1" id="Layer_1" xmlns="http://www.w3.org/2000/svg" xmlns:xlink="http://www.w3.org/1999/xlink" x="0px" y="0px"
	 viewBox="0 0 512 512" style="enable-background:new 0 0 512 512;" xml:space="preserve">
<g>
	<g>
		<path d="M307.307,0h-34.205c-4.427,0-8.017,3.589-8.017,8.017v60.392h-26.188c-13.851,0-25.119,11.268-25.119,25.119v18.956
			c-9.93,3.354-17.102,12.752-17.102,23.8c0,6.603,2.564,12.614,6.745,17.102c-4.18,4.488-6.745,10.5-6.745,17.102v76.96
			c0,4.427,3.589,8.017,8.017,8.017h34.205c4.427,0,8.017-3.589,8.017-8.017v-76.96c0-6.603-2.564-12.614-6.745-17.102
			c4.18-4.488,6.745-10.5,6.745-17.102c0-11.048-7.172-20.446-17.102-23.8V93.528c0-5.01,4.076-9.086,9.086-9.086h26.188v419.541
			c0,4.427,3.589,8.017,8.017,8.017h34.205c4.427,0,8.017-3.589,8.017-8.017V8.017C315.324,3.589,311.734,0,307.307,0z
			 M230.881,239.432H212.71v-68.944c0-5.01,4.076-9.086,9.086-9.086s9.086,4.076,9.086,9.086V239.432z M230.881,136.284
			c0,5.01-4.076,9.086-9.086,9.086s-9.086-4.076-9.086-9.086s4.076-9.086,9.086-9.086S230.881,131.274,230.881,136.284z
			 M299.29,495.967h-18.171v-26.722h18.171V495.967z M299.29,453.211h-18.171V323.875h18.171V453.211z M299.29,307.841h-18.171
			V289.67h18.171V307.841z M299.29,273.637h-18.171V50.238h18.171V273.637z M299.29,34.205h-18.171V16.033h18.171V34.205z"/>
	</g>
</g>
<g>
</g>
<g>
</g>
<g>
</g>
<g>
</g>
<g>
</g>
<g>
</g>
<g>
</g>
<g>
</g>
<g>
</g>
<g>
</g>
<g>
</g>
<g>
</g>
<g>
</g>
<g>
</g>
<g>
</g>
</svg>
