<?xml version="1.0" encoding="iso-8859-1"?>
<!-- Generator: Adobe Illustrator 19.0.0, SVG Export Plug-In . SVG Version: 6.00 Build 0)  -->
<svg version="1.1" id="Layer_1" xmlns="http://www.w3.org/2000/svg" xmlns:xlink="http://www.w3.org/1999/xlink" x="0px" y="0px"
	 viewBox="0 0 471.733 471.733" style="enable-background:new 0 0 471.733 471.733;" xml:space="preserve">
<g>
	<g>
		<g>
			<path d="M469.536,61.596l-16.889-16.89l13.53-14.072c2.832-2.946,2.785-7.616-0.105-10.504L449.837,3.91
				c-2.891-2.887-7.557-2.931-10.5-0.1l-24.875,23.924l-16.649-16.649c-2.93-2.929-7.678-2.929-10.607,0
				c-2.929,2.929-2.929,7.678,0,10.606l16.443,16.442l-12.154,11.689l-16.21-16.209c-2.93-2.929-7.678-2.929-10.607,0
				c-2.929,2.929-2.929,7.678,0,10.606l16.003,16.003l-73.783,70.961l-66.492,0.236c-23.795,0.103-46.144,9.403-62.928,26.188
				l-14.199,14.199c-1.887,1.887-2.629,4.635-1.949,7.216c1.512,5.734,0.7,11.713-2.285,16.837
				c-2.985,5.124-7.787,8.778-13.521,10.29l-22.442,5.918c-11.838,3.122-24.006-3.969-27.127-15.806
				c-0.685-2.596-2.705-4.628-5.296-5.328c-2.593-0.7-5.36,0.039-7.259,1.937l-38.777,38.777
				c-51.636,51.637-53.352,134.574-5.156,188.297l-37.27,37.27c-2.929,2.929-2.929,7.677,0,10.606
				c1.464,1.465,3.384,2.197,5.303,2.197s3.839-0.732,5.303-2.197l37.269-37.27c25.162,22.602,57.341,34.97,91.424,34.97
				c36.594,0,70.998-14.25,96.874-40.126l38.777-38.777c1.898-1.898,2.637-4.667,1.937-7.259c-0.699-2.592-2.731-4.612-5.328-5.297
				c-5.733-1.512-10.535-5.166-13.521-10.29c-2.986-5.124-3.797-11.103-2.285-16.837l5.918-22.443
				c1.512-5.734,5.166-10.535,10.289-13.521c5.124-2.986,11.103-3.797,16.838-2.285c2.582,0.68,5.328-0.061,7.216-1.949
				l14.198-14.199c16.783-16.784,26.084-39.133,26.188-62.934l0.236-66.521l58.632-60.981c0.059-0.055,0.122-0.104,0.179-0.162
				c0.131-0.131,0.249-0.269,0.368-0.407l22.152-23.04l16.238,16.239c1.465,1.465,3.384,2.197,5.304,2.197
				c1.919,0,3.839-0.732,5.304-2.197c2.929-2.929,2.929-7.677,0-10.606l-16.447-16.447l11.688-12.156l16.681,16.681
				c1.465,1.465,3.384,2.197,5.304,2.197c1.919,0,3.839-0.732,5.304-2.197C472.465,69.273,472.465,64.525,469.536,61.596z
				 M323.595,229.544c-0.086,19.814-7.826,38.419-21.795,52.387l-11.365,11.367c-8.225-1.155-16.544,0.466-23.83,4.712
				c-8.586,5.002-14.709,13.049-17.242,22.657l-5.918,22.442c-2.534,9.608-1.174,19.627,3.828,28.213
				c2.931,5.029,6.905,9.213,11.627,12.326l-31.138,31.138c-23.043,23.043-53.68,35.733-86.267,35.733
				c-32.587,0-63.224-12.69-86.267-35.733c-47.567-47.568-47.567-124.966,0-172.534l31.149-31.149
				c8.559,12.933,24.72,19.635,40.528,15.467l22.442-5.918c9.608-2.533,17.655-8.657,22.657-17.242
				c4.246-7.286,5.867-15.606,4.712-23.83l11.366-11.367c13.969-13.969,32.573-21.708,52.38-21.794l50.779-0.18L180.543,252.703
				c-1.452,1.396-2.281,3.318-2.301,5.333c-0.02,2.014,0.772,3.952,2.196,5.376l26.163,26.163c1.407,1.407,3.315,2.197,5.303,2.197
				c0.024,0,0.049,0,0.074,0c2.015-0.02,3.937-0.849,5.333-2.302l106.464-110.729L323.595,229.544z M211.8,273.56l-15.347-15.347
				L373.262,88.168l8.56,8.558L211.8,273.56z M392.22,85.912l-8.144-8.143l60.36-58.052l5.829,5.824L392.22,85.912z"/>
			<path d="M148.447,288.333c-2.929-2.929-7.678-2.929-10.606,0c-2.929,2.929-2.929,7.677,0,10.606l33.234,33.234
				c1.464,1.465,3.384,2.197,5.303,2.197s3.839-0.732,5.303-2.197c2.929-2.929,2.929-7.677,0-10.606L148.447,288.333z"/>
			<path d="M109.385,327.395c-1.52-1.519-3.617-2.313-5.76-2.183c-2.145,0.131-4.129,1.175-5.452,2.868l-42.625,54.54
				c-2.551,3.264-1.973,7.977,1.291,10.528c3.262,2.55,7.977,1.972,10.527-1.291l37.406-47.862l21.248,21.247l-47.863,37.406
				c-3.264,2.551-3.842,7.264-1.291,10.528c1.479,1.893,3.685,2.882,5.915,2.882c1.615,0,3.242-0.519,4.613-1.591l54.54-42.625
				c1.693-1.323,2.737-3.308,2.868-5.452c0.131-2.144-0.664-4.241-2.183-5.76L109.385,327.395z"/>
			<path d="M144.142,159.124c1.464,1.465,3.384,2.197,5.303,2.197c1.919,0,3.839-0.732,5.303-2.197
				c2.929-2.929,2.929-7.678,0-10.606l-50.405-50.405l10.607-10.607l50.924,50.924c2.929,2.929,7.678,2.929,10.606,0
				c2.929-2.929,2.929-7.677,0-10.606l-56.227-56.227c-14.621-14.622-38.412-14.622-53.033,0c-1.407,1.406-2.197,3.314-2.197,5.303
				c0,1.989,0.79,3.897,2.197,5.303L144.142,159.124z M103.424,77.819l-9.688,9.687l-9.698-9.698
				C90.152,74.895,97.312,74.908,103.424,77.819z"/>
			<path d="M385.98,379.748c4.018-6.07,6.178-13.201,6.178-20.679c0-10.038-3.886-19.453-10.943-26.512
				c-0.007-0.007-39.024-39.025-39.024-39.025c-2.93-2.928-7.678-2.929-10.607,0c-2.929,2.929-2.929,7.677,0,10.606l33.717,33.716
				l-10.606,10.607l-33.198-33.198c-2.93-2.929-7.678-2.929-10.607,0c-2.929,2.929-2.929,7.678,0,10.606l38.498,38.497
				c0.009,0.009,21.212,21.212,21.212,21.212c0.012,0.012,23.306,23.306,23.306,23.306c1.465,1.465,3.385,2.197,5.304,2.197
				c1.919,0,3.839-0.732,5.304-2.197c2.929-2.929,2.929-7.678,0-10.606L385.98,379.748z M374.974,368.743l-9.674-9.674l9.674-9.674
				c1.413,2.98,2.183,6.26,2.183,9.674S376.387,365.763,374.974,368.743z"/>
		</g>
	</g>
</g>
<g>
</g>
<g>
</g>
<g>
</g>
<g>
</g>
<g>
</g>
<g>
</g>
<g>
</g>
<g>
</g>
<g>
</g>
<g>
</g>
<g>
</g>
<g>
</g>
<g>
</g>
<g>
</g>
<g>
</g>
</svg>
