<?xml version="1.0" standalone="no"?>
<!DOCTYPE svg PUBLIC "-//W3C//DTD SVG 20010904//EN"
 "http://www.w3.org/TR/2001/REC-SVG-20010904/DTD/svg10.dtd">
<svg version="1.0" xmlns="http://www.w3.org/2000/svg"
 width="512.000000pt" height="512.000000pt" viewBox="0 0 512.000000 512.000000"
 preserveAspectRatio="xMidYMid meet">
<metadata>
Created by potrace 1.15, written by Peter Selinger 2001-2017
</metadata>
<g transform="translate(0.000000,512.000000) scale(0.100000,-0.100000)"
fill="#000000" stroke="none">
<path d="M2996 4900 c-156 -18 -325 -72 -383 -123 -49 -43 -70 -98 -104 -272
-33 -166 -37 -264 -20 -440 20 -194 60 -487 81 -590 11 -55 20 -103 20 -107 0
-12 63 -28 194 -48 146 -22 167 -18 198 36 21 36 55 267 65 442 l6 114 66 -7
c141 -13 304 35 370 110 41 47 61 87 127 258 82 211 84 303 6 413 -120 168
-346 245 -626 214z m277 -65 c156 -40 265 -150 283 -286 9 -64 -19 -162 -63
-227 -64 -93 -153 -140 -377 -197 -71 -18 -132 -39 -137 -46 -15 -25 -49 -231
-60 -366 -6 -76 -13 -144 -15 -150 -2 -9 -24 -13 -64 -13 l-60 0 0 63 c0 34
-13 253 -29 487 -17 234 -33 482 -37 551 l-7 127 65 21 c36 12 96 28 134 35
96 19 295 20 367 1z m-668 -565 c9 -102 29 -291 46 -420 16 -129 28 -257 27
-284 -3 -44 0 -51 22 -63 15 -8 63 -13 123 -13 53 0 97 -2 97 -5 0 -3 -7 -35
-16 -71 l-17 -65 -46 6 c-113 15 -181 27 -186 35 -16 26 -48 235 -80 523 l-36
327 20 100 c12 54 22 109 22 122 2 41 8 -3 24 -192z m885 -97 c0 -20 -70 -111
-112 -143 -65 -52 -107 -64 -223 -65 l-100 0 -3 48 -3 47 38 0 c56 0 227 46
313 84 81 37 90 39 90 29z"/>
<path d="M2995 4692 c-34 -12 -61 -33 -49 -38 9 -4 9 -13 1 -34 -9 -24 -8 -39
4 -72 14 -41 16 -43 53 -41 60 4 108 33 130 76 30 63 4 97 -85 111 -19 2 -43
2 -54 -2z"/>
<path d="M1635 4440 c-281 -41 -527 -243 -591 -485 -19 -69 -18 -219 2 -286
57 -191 204 -336 394 -388 41 -12 86 -29 100 -39 14 -11 89 -111 166 -223 78
-112 155 -222 171 -244 16 -22 111 -157 210 -300 99 -143 236 -340 304 -437
68 -98 193 -278 278 -400 106 -152 179 -247 232 -299 77 -76 77 -76 72 -121
-9 -77 43 -152 124 -179 71 -23 307 6 328 41 3 5 -4 14 -15 20 -16 9 -38 7
-95 -6 -63 -15 -81 -16 -116 -5 -45 13 -112 76 -148 137 l-22 36 38 -7 c21 -4
81 -9 133 -11 87 -4 95 -6 103 -26 16 -44 83 -98 121 -98 21 0 3 53 -36 103
-24 30 -27 41 -18 52 17 20 10 43 -70 240 -263 650 -497 1168 -830 1837 -132
268 -132 268 -127 325 3 32 13 92 22 133 69 307 -176 588 -548 629 -105 12
-108 12 -182 1z m208 -45 c94 -20 160 -58 242 -140 108 -108 155 -219 155
-371 0 -270 -212 -515 -495 -570 -143 -29 -274 2 -380 89 -129 105 -195 252
-195 432 0 180 72 327 217 443 139 112 294 152 456 117z m481 -869 l16 -49
-61 -68 c-68 -77 -155 -138 -289 -205 -92 -46 -229 -88 -255 -78 -8 3 -31 27
-52 52 -21 26 -41 49 -45 50 -26 11 4 20 87 25 107 7 216 39 310 92 72 40 183
140 226 202 17 25 35 41 39 36 4 -4 15 -30 24 -57z m62 -168 c4 -13 20 -52 37
-88 112 -247 337 -741 372 -820 24 -52 116 -255 205 -450 90 -195 177 -389
195 -430 18 -41 49 -108 69 -147 41 -83 45 -99 16 -81 -24 16 -41 1 -17 -16
25 -19 21 -26 -15 -26 -41 0 -95 32 -110 65 -14 32 -48 34 -48 3 0 -12 7 -30
17 -40 13 -15 14 -18 1 -18 -27 0 -48 25 -71 85 -15 39 -30 61 -41 63 -17 4
-18 -2 -14 -47 3 -28 1 -51 -4 -51 -15 0 -48 83 -48 121 0 56 -11 100 -27 106
-23 9 -28 -5 -26 -75 3 -78 5 -84 -67 148 -64 205 -75 233 -89 238 -16 5 -14
-29 10 -130 12 -49 18 -92 15 -95 -11 -11 -74 142 -101 247 -15 58 -41 135
-58 173 -25 55 -34 67 -53 67 -20 0 -24 -5 -24 -32 0 -18 5 -53 11 -77 5 -24
7 -46 5 -49 -11 -10 -77 147 -116 273 -59 189 -99 285 -120 285 -16 0 -17 -28
-4 -100 24 -137 13 -117 -69 130 -61 183 -86 246 -99 248 -25 5 -32 -37 -22
-128 6 -43 6 -76 2 -74 -4 3 -8 10 -8 16 0 18 -110 322 -120 332 -21 21 -30
-18 -23 -94 l6 -75 -39 50 c-64 81 -144 192 -144 199 0 3 13 6 29 6 50 0 223
49 296 84 91 43 188 117 233 178 20 26 40 48 43 48 4 0 11 -10 15 -22z"/>
<path d="M1768 4333 c-8 -10 -21 -30 -30 -44 -13 -21 -22 -25 -48 -21 -29 4
-31 7 -28 33 6 38 -4 37 -36 -6 -17 -22 -35 -35 -50 -35 -37 0 -86 -21 -86
-37 0 -11 10 -14 40 -12 48 4 53 -1 41 -34 -10 -25 -19 -29 -107 -42 -43 -7
-89 -39 -79 -56 4 -5 23 -8 43 -7 20 1 54 1 75 0 36 -2 37 -3 37 -42 0 -61 39
-52 55 13 6 23 12 27 41 27 l34 0 0 -49 c0 -81 35 -80 55 2 8 32 15 42 30 42
17 0 21 -10 29 -62 13 -90 46 -84 46 8 0 47 8 49 122 18 44 -12 81 -19 84 -17
2 3 1 13 -2 23 -7 19 -137 85 -166 85 -19 0 -24 25 -9 49 16 25 152 -28 209
-82 30 -29 32 -29 32 -10 0 46 -64 94 -192 142 l-28 10 25 57 c14 32 24 59 21
61 -8 8 -64 -48 -75 -75 -10 -24 -16 -28 -42 -24 -26 4 -30 8 -25 26 22 75 16
96 -16 59z"/>
<path d="M3975 4240 c-4 -6 24 -43 62 -83 37 -40 111 -124 164 -187 271 -325
432 -580 579 -918 34 -78 67 -145 72 -148 41 -26 23 146 -33 310 -54 156 -151
336 -268 496 -103 140 -286 365 -348 426 -88 87 -205 140 -228 104z"/>
<path d="M3822 3769 c-39 -72 -125 -215 -136 -227 -10 -10 -34 -3 -122 38
-109 50 -129 55 -158 44 -25 -10 -19 -33 28 -115 23 -42 58 -105 76 -140 l32
-65 -81 -123 c-61 -93 -81 -132 -81 -157 0 -50 29 -45 65 12 23 36 44 53 98
81 38 19 70 33 72 31 1 -2 21 -34 43 -73 53 -90 115 -155 150 -156 92 -4 95 1
77 146 -8 65 -15 143 -15 171 l0 52 102 53 c155 82 157 103 10 121 -74 10 -92
15 -92 29 0 9 7 78 16 154 17 151 16 155 -39 155 -21 0 -32 -8 -45 -31z m-36
-236 c-14 -84 -22 -77 97 -92 59 -8 107 -18 107 -22 0 -4 -48 -33 -106 -65
-59 -32 -113 -65 -121 -73 -12 -11 -13 -29 -8 -80 6 -58 5 -64 -8 -52 -9 7
-24 33 -33 57 -9 25 -22 43 -28 41 -6 -3 -45 -25 -86 -50 -41 -25 -76 -44 -77
-43 -2 2 24 47 57 101 l60 99 -27 45 c-14 25 -39 66 -55 89 l-28 44 30 -7 c17
-4 57 -17 88 -30 65 -26 74 -23 108 40 24 46 38 44 30 -2z"/>
<path d="M703 3456 c-80 -19 -115 -36 -185 -91 -119 -93 -234 -271 -275 -425
-37 -140 -14 -387 35 -378 14 3 19 26 29 118 25 227 88 404 191 541 53 70 125
135 181 164 113 58 270 -26 358 -191 40 -75 59 -150 74 -291 11 -98 11 -116
-3 -152 -13 -32 -14 -44 -5 -52 20 -17 195 -146 307 -226 58 -41 105 -78 105
-81 0 -14 -118 -174 -132 -179 -8 -3 -45 6 -81 21 -96 37 -974 326 -992 326
-8 0 -21 -4 -29 -9 -11 -7 -5 -13 25 -26 431 -183 894 -340 1065 -360 74 -9
356 30 382 53 20 18 47 102 47 149 0 28 -8 39 -57 77 -32 25 -105 82 -163 128
-58 46 -134 103 -169 128 l-65 45 3 115 c3 121 -8 190 -50 311 -46 134 -43
131 -215 216 -151 74 -158 77 -237 80 -46 1 -109 -4 -144 -11z m485 -145 c23
-13 72 -139 93 -236 23 -111 24 -228 3 -291 l-16 -47 33 -26 c18 -14 61 -46
96 -71 299 -216 323 -235 323 -252 0 -11 -11 -44 -25 -74 -14 -30 -25 -59 -25
-64 0 -5 -17 -14 -37 -19 -38 -11 -93 -15 -93 -7 0 16 62 151 72 157 9 6 7 13
-7 29 -22 25 -303 221 -377 264 -27 15 -48 29 -48 31 0 1 7 22 16 46 26 73 34
159 25 267 -12 129 -45 207 -127 293 l-57 59 69 -26 c37 -14 75 -29 82 -33z"/>
<path d="M682 3064 c-53 -37 -69 -125 -29 -162 25 -24 87 -52 114 -52 11 0 24
13 32 32 18 39 2 149 -25 179 -21 23 -62 25 -92 3z"/>
<path d="M2998 2869 c-2 -6 -33 -23 -68 -38 -39 -16 -66 -33 -68 -44 -4 -22
37 -23 78 -2 l29 15 3 -43 c3 -37 7 -44 36 -56 42 -19 40 -28 -7 -41 -50 -13
-90 -45 -76 -59 11 -11 167 37 188 58 18 18 -1 40 -52 58 -55 19 -56 20 -40
77 11 40 5 86 -10 86 -5 0 -11 -5 -13 -11z"/>
<path d="M4763 2684 c-7 -3 -13 -12 -13 -20 0 -8 -13 -17 -28 -20 -27 -6 -28
-8 -29 -71 0 -61 1 -64 21 -59 11 3 45 6 74 6 48 0 52 2 52 24 0 14 9 31 21
40 24 16 18 36 -11 36 -14 0 -20 8 -22 33 -2 26 -8 32 -28 34 -14 1 -31 -1
-37 -3z"/>
<path d="M3060 2577 c-69 -28 -88 -59 -66 -110 7 -19 24 -42 37 -51 34 -23
106 -20 159 7 75 37 47 50 -71 32 -53 -8 -89 6 -89 35 0 13 20 30 65 55 36 20
67 41 71 46 10 17 -50 9 -106 -14z"/>
<path d="M4225 2543 c-65 -14 -389 -110 -435 -129 -98 -40 -70 -62 48 -38 93
18 392 100 445 121 73 30 29 65 -58 46z"/>
<path d="M3207 2332 c-10 -10 -17 -25 -17 -34 0 -29 -22 -78 -35 -78 -7 0 -18
7 -25 15 -10 13 -10 19 4 33 19 22 20 34 4 50 -16 16 -58 -23 -58 -52 0 -35
36 -83 67 -89 42 -9 75 20 92 82 9 31 19 51 28 51 12 0 13 -9 8 -40 -5 -32 -4
-41 10 -46 37 -15 48 57 14 100 -24 31 -68 35 -92 8z"/>
<path d="M4786 2248 c-9 -18 -48 -161 -87 -318 -75 -300 -138 -517 -195 -664
-59 -153 -41 -160 68 -29 131 159 206 327 277 623 50 210 61 326 37 385 -13
30 -20 35 -49 35 -28 0 -37 -5 -51 -32z"/>
<path d="M3730 2157 c0 -26 202 -174 351 -257 63 -34 127 -72 142 -83 56 -38
137 -43 137 -7 0 22 -21 38 -165 120 -60 34 -152 92 -204 128 -120 84 -261
137 -261 99z"/>
<path d="M3339 1991 c-46 -15 -69 -31 -85 -62 -26 -52 9 -109 58 -93 24 7 18
28 -10 32 -48 7 -7 64 60 84 47 14 66 2 48 -31 -9 -17 -8 -22 5 -27 35 -14 64
58 33 84 -19 15 -79 22 -109 13z"/>
<path d="M2090 1863 c-14 -9 -55 -43 -92 -75 l-66 -59 -109 35 c-86 28 -118
34 -158 29 -50 -6 -75 -17 -75 -35 0 -5 24 -35 53 -66 62 -67 117 -136 117
-148 0 -5 -43 -58 -95 -119 -52 -60 -93 -114 -91 -120 1 -5 32 -10 67 -9 58 1
94 8 226 46 l42 12 58 -55 c95 -89 127 -111 165 -107 31 3 33 5 30 38 -14 182
-14 200 -1 204 8 3 65 19 127 37 62 18 112 38 112 44 0 7 -51 36 -112 65 -62
29 -115 54 -117 55 -3 3 5 62 24 178 9 55 -54 85 -105 50z m16 -90 c-3 -16 -8
-60 -11 -98 l-7 -70 84 -34 c46 -18 87 -37 91 -41 8 -7 -133 -50 -164 -50 -27
0 -39 -23 -39 -77 0 -29 -5 -53 -10 -53 -6 0 -29 17 -53 39 l-42 39 -118 -35
c-65 -19 -121 -33 -124 -30 -2 3 28 49 68 101 l72 97 -20 22 c-79 87 -133 162
-120 165 7 1 64 -15 127 -37 l114 -39 68 64 c38 35 73 64 79 64 6 0 8 -11 5
-27z"/>
<path d="M918 1653 c-65 -74 -58 -195 19 -366 51 -112 95 -186 174 -292 185
-249 460 -452 755 -558 167 -60 456 -127 548 -127 38 0 88 22 76 33 -3 2 -84
21 -180 41 -303 64 -529 150 -714 273 -121 80 -315 269 -398 389 -124 177
-216 401 -226 547 -4 64 -7 77 -22 77 -9 0 -24 -8 -32 -17z"/>
<path d="M3911 1492 c-22 -23 -45 -64 -59 -104 l-23 -66 -64 -4 c-68 -4 -105
-25 -105 -59 0 -9 23 -37 50 -61 l51 -43 -16 -45 c-16 -46 -12 -144 6 -156 12
-7 44 12 90 53 l39 35 31 -26 c37 -31 72 -33 117 -6 38 23 39 37 12 109 l-21
53 57 52 c75 68 71 86 -19 86 -64 0 -65 0 -71 31 -3 17 -6 67 -6 110 0 94 -12
101 -69 41z m9 -207 c0 -24 2 -25 70 -25 39 0 70 -4 70 -8 0 -4 -20 -28 -45
-52 -25 -24 -45 -52 -45 -62 0 -10 -5 -15 -13 -12 -8 3 -35 -14 -62 -38 -26
-24 -57 -49 -68 -57 -19 -14 -20 -13 -13 25 4 21 18 65 31 97 23 58 23 59 4
78 -10 10 -23 19 -29 19 -5 0 -10 5 -10 11 0 6 17 9 43 7 37 -3 42 0 45 20 5
30 22 28 22 -3z"/>
<path d="M2547 1219 c-16 -25 -51 -213 -63 -330 -6 -61 -5 -68 14 -78 49 -26
64 7 83 187 18 176 2 278 -34 221z"/>
<path d="M4208 958 c-10 -12 -18 -26 -18 -30 0 -4 -6 -8 -14 -8 -23 0 -29 -20
-13 -38 12 -13 13 -22 5 -35 -7 -13 -5 -25 6 -43 20 -29 21 -29 48 -4 17 15
30 19 54 14 30 -6 32 -4 38 33 14 81 13 88 -14 91 -13 2 -30 13 -38 23 -17 25
-33 24 -54 -3z"/>
<path d="M3880 674 c-41 -20 -158 -74 -260 -120 -102 -46 -186 -88 -188 -94
-6 -17 108 -11 186 10 165 46 393 189 367 230 -10 16 -27 12 -105 -26z"/>
<path d="M2876 365 c-3 -9 -18 -15 -36 -15 -27 0 -30 -3 -30 -31 0 -32 -15
-69 -34 -81 -21 -15 11 -23 82 -21 80 1 92 6 92 34 0 11 11 24 25 31 34 15 32
35 -5 43 -23 5 -30 12 -30 31 0 20 -5 24 -29 24 -16 0 -31 -6 -35 -15z"/>
</g>
</svg>
